#!OML:ASF E:\Style3\Style3.ASF
:FULLY-SPECIFIED
:DEGREES
3583
root 0.0705193 17.5753 1.08127 -1429.39 138.106 -1438.08
lowerback -14.4244 2.21652 -4.45141
upperback -12.6827 5.24222 2.81368
thorax -6.20084 3.87952 5.85796
lowerneck -2.78625 -15.3975 -10.2851
upperneck -5.63119 -17.5802 41.2407
head 4.45802 -7.19849 14.4596
rclavicle -3.61788e-014 -2.31584e-014
rhumerus 94.9426 7.36254 -78.0553
rradius 55.5561
rwrist -72.5144
rhand -2.49466 10.0662
rfingers 7.12502
rthumb 23.1989 -18.5566
lclavicle 9.34288e-015 -8.34896e-015
lhumerus 51.5714 -45.4884 64.4656
lradius 117.184
lwrist 71.4453
lhand -31.6226 29.9405
lfingers 7.12502
lthumb -4.88437 59.8642
rfemur -5.77052 -7.37953 25.0677
rtibia 18.7498
rfoot -26.3445 -39.4441
rtoes 8.5863
lfemur -25.7412 -21.4234 -8.47011
ltibia 20.1565
lfoot -7.65584 -2.30631
ltoes -27.2708
3584
root 0.0684436 17.5756 1.08286 -1429.42 138.079 -1438.09
lowerback -14.4467 2.16048 -4.33769
upperback -12.753 5.17908 2.8876
thorax -6.25607 3.85403 5.867
lowerneck -2.72258 -15.3663 -10.3296
upperneck -5.72455 -17.496 41.3021
head 4.41178 -7.17431 14.5157
rclavicle -3.61788e-014 -2.31584e-014
rhumerus 94.9426 7.36254 -78.0553
rradius 55.5561
rwrist -72.5144
rhand -2.49466 10.0662
rfingers 7.12502
rthumb 23.1989 -18.5566
lclavicle -5.63555e-014 6.55989e-015
lhumerus 51.4928 -45.3837 64.5887
lradius 117.31
lwrist 71.2872
lhand -31.7155 29.8969
lfingers 7.12502
lthumb -4.97401 59.8186
rfemur -5.76762 -7.3844 25.0526
rtibia 18.7696
rfoot -26.1976 -39.5018
rtoes 8.3342
lfemur -25.7193 -21.4125 -8.48966
ltibia 20.2074
lfoot -7.7087 -2.30917
ltoes -27.4155
3585
root 0.0683658 17.575 1.08606 -1429.49 138.057 -1438.14
lowerback -14.461 2.12325 -4.28379
upperback -12.8123 5.14326 2.94399
thorax -6.31153 3.84456 5.89267
lowerneck -2.61146 -15.351 -10.3174
upperneck -5.95237 -17.3765 41.3782
head 4.30424 -7.14919 14.5742
rclavicle -3.61788e-014 -2.31584e-014
rhumerus 94.9426 7.36254 -78.0553
rradius 55.5561
rwrist -72.5144
rhand -2.49466 10.0662
rfingers 7.12502
rthumb 23.1989 -18.5566
lclavicle -5.98342e-014 -3.95581e-014
lhumerus 51.4893 -45.3097 64.7262
lradius 117.4
lwrist 71.1755
lhand -31.7355 29.7255
lfingers 7.12502
lthumb -4.99337 59.6467
rfemur -5.75824 -7.3578 25.0224
rtibia 18.8151
rfoot -26.1185 -39.5444
rtoes 8.04645
lfemur -25.6612 -21.3435 -8.55509
ltibia 20.2163
lfoot -7.74209 -2.34236
ltoes -27.9083
3586
root 0.0692978 17.5728 1.08824 -1429.56 138.047 -1438.11
lowerback -14.4622 2.10094 -4.1685
upperback -12.8414 5.11523 3.01985
thorax -6.33699 3.83092 5.90609
lowerneck -2.58612 -15.3488 -10.3342
upperneck -6.1108 -17.3176 41.3858
head 4.24214 -7.14247 14.5894
rclavicle -3.61788e-014 -2.31584e-014
rhumerus 94.9426 7.36254 -78.0553
rradius 55.5561
rwrist -72.5144
rhand -2.49466 10.0662
rfingers 7.12502
rthumb 23.1989 -18.5566
lclavicle -1.60022e-014 6.16232e-015
lhumerus 51.5634 -45.2644 64.83
lradius 117.518
lwrist 71.0518
lhand -31.6973 29.6237
lfingers 7.12502
lthumb -4.95646 59.5458
rfemur -5.67073 -7.36332 25.0416
rtibia 18.8477
rfoot -26.2326 -39.4547
rtoes 8.20451
lfemur -25.5711 -21.3163 -8.56402
ltibia 20.2256
lfoot -7.72692 -2.38621
ltoes -27.6933
3587
root 0.0692889 17.571 1.08902 -1429.7 138.023 -1438.17
lowerback -14.4622 2.08992 -4.16925
upperback -12.8811 5.11735 3.09744
thorax -6.39212 3.84447 5.988
lowerneck -2.59195 -15.3929 -10.4038
upperneck -6.26632 -17.3408 41.3667
head 4.21221 -7.17396 14.5829
rclavicle -3.61788e-014 -2.31584e-014
rhumerus 94.9426 7.36254 -78.0553
rradius 55.5561
rwrist -72.5144
rhand -2.49466 10.0662
rfingers 7.12502
rthumb 23.1989 -18.5566
lclavicle -9.64106e-015 2.78299e-015
lhumerus 51.7104 -45.3265 64.9199
lradius 117.615
lwrist 70.7868
lhand -31.7335 29.5327
lfingers 7.12502
lthumb -4.99139 59.4539
rfemur -5.58819 -7.40796 24.9677
rtibia 18.871
rfoot -26.1547 -39.4428
rtoes 8.41068
lfemur -25.481 -21.298 -8.67068
ltibia 20.2411
lfoot -7.72949 -2.39476
ltoes -27.6039
3588
root 0.070392 17.5709 1.09152 -1429.79 138.01 -1438.18
lowerback -14.4491 2.05972 -4.13364
upperback -12.9298 5.09149 3.18109
thorax -6.45719 3.84231 6.05267
lowerneck -2.58255 -15.4035 -10.3799
upperneck -6.43919 -17.2895 41.3682
head 4.14548 -7.16899 14.5846
rclavicle -3.61788e-014 -2.31584e-014
rhumerus 94.9426 7.36254 -78.0553
rradius 55.5561
rwrist -72.5144
rhand -2.49466 10.0662
rfingers 7.12502
rthumb 23.1989 -18.5566
lclavicle -3.04141e-014 -3.57812e-015
lhumerus 51.7485 -45.3349 65.0143
lradius 117.684
lwrist 70.6124
lhand -31.683 29.5718
lfingers 7.12502
lthumb -4.94266 59.4941
rfemur -5.49123 -7.35333 24.9631
rtibia 18.8816
rfoot -26.2997 -39.3966
rtoes 9.07679
lfemur -25.4068 -21.255 -8.71661
ltibia 20.2794
lfoot -7.72561 -2.4593
ltoes -27.4014
3589
root 0.0720401 17.569 1.09367 -1429.75 138.036 -1438.09
lowerback -14.4828 1.98518 -3.92617
upperback -13.0061 4.9953 3.23167
thorax -6.49619 3.79093 5.98229
lowerneck -2.589 -15.3288 -10.1599
upperneck -6.549 -17.1089 41.3305
head 4.03255 -7.09149 14.5585
rclavicle -3.61788e-014 -2.31584e-014
rhumerus 94.9426 7.36254 -78.0553
rradius 55.5561
rwrist -72.5144
rhand -2.49466 10.0662
rfingers 7.12502
rthumb 23.1989 -18.5566
lclavicle -5.1684e-015 1.19271e-014
lhumerus 51.6172 -45.2459 65.1011
lradius 117.726
lwrist 70.5724
lhand -31.5271 29.3577
lfingers 7.12502
lthumb -4.79212 59.2835
rfemur -5.48575 -7.3296 25.0541
rtibia 18.9346
rfoot -26.3562 -39.4012
rtoes 9.20261
lfemur -25.4006 -21.2212 -8.64824
ltibia 20.3119
lfoot -7.76077 -2.48088
ltoes -27.6835
3590
root 0.0737858 17.5665 1.09547 -1429.76 138.044 -1438.03
lowerback -14.5194 1.93454 -3.78313
upperback -13.0653 4.93701 3.3096
thorax -6.53044 3.76445 5.98142
lowerneck -2.51121 -15.2712 -10.1318
upperneck -6.7674 -16.934 41.3497
head 3.90794 -7.03915 14.5973
rclavicle -3.61788e-014 -2.31584e-014
rhumerus 94.9426 7.36254 -78.0553
rradius 55.5561
rwrist -72.5144
rhand -2.49466 10.0662
rfingers 7.12502
rthumb 23.1989 -18.5566
lclavicle -2.26615e-014 -4.33351e-014
lhumerus 51.4624 -45.1546 65.3503
lradius 117.801
lwrist 70.5578
lhand -31.4323 29.2876
lfingers 7.12502
lthumb -4.70055 59.2155
rfemur -5.47016 -7.32114 25.1109
rtibia 18.998
rfoot -26.242 -39.4418
rtoes 9.02989
lfemur -25.3602 -21.2418 -8.5901
ltibia 20.3476
lfoot -7.77758 -2.50723
ltoes -27.9248
3591
root 0.0748849 17.5652 1.09607 -1429.91 138.015 -1438.18
lowerback -14.6059 1.91229 -3.8096
upperback -13.0853 4.92139 3.32463
thorax -6.50909 3.76343 6.01718
lowerneck -2.4578 -15.2834 -10.0871
upperneck -7.05969 -16.8298 41.4136
head 3.793 -7.02148 14.6357
rclavicle -3.61788e-014 -2.31584e-014
rhumerus 94.9426 7.36254 -78.0553
rradius 55.5561
rwrist -72.5144
rhand -2.49466 10.0662
rfingers 7.12502
rthumb 23.1989 -18.5566
lclavicle -1.52468e-013 -8.0309e-014
lhumerus 51.5275 -45.1817 65.4409
lradius 117.791
lwrist 70.3886
lhand -31.3711 29.4113
lfingers 7.12502
lthumb -4.64146 59.3405
rfemur -5.47371 -7.34711 24.9779
rtibia 19.0946
rfoot -26.1793 -39.4286
rtoes 9.11303
lfemur -25.3036 -21.2814 -8.72721
ltibia 20.3644
lfoot -7.83093 -2.47553
ltoes -28.1647
3592
root 0.0759706 17.5626 1.09792 -1430 138.013 -1438.27
lowerback -14.7098 1.86677 -3.78906
upperback -13.1 4.86923 3.34192
thorax -6.46241 3.73907 6.02793
lowerneck -2.5323 -15.2933 -9.90685
upperneck -7.21159 -16.7612 41.4294
head 3.72762 -6.99189 14.6131
rclavicle -3.61788e-014 -2.31584e-014
rhumerus 94.9426 7.36254 -78.0553
rradius 55.5561
rwrist -72.5144
rhand -2.49466 10.0662
rfingers 7.12502
rthumb 23.1989 -18.5566
lclavicle 1.35969e-013 5.24792e-014
lhumerus 51.6313 -45.2118 65.3753
lradius 117.762
lwrist 70.1595
lhand -31.2824 29.2959
lfingers 7.12502
lthumb -4.55581 59.2269
rfemur -5.50836 -7.32917 24.907
rtibia 19.2148
rfoot -26.2352 -39.4435
rtoes 9.16484
lfemur -25.2834 -21.2785 -8.81151
ltibia 20.3537
lfoot -7.82771 -2.46012
ltoes -27.9643
3593
root 0.0777154 17.5602 1.10114 -1430.08 138.021 -1438.35
lowerback -14.6942 1.70691 -3.44186
upperback -13.0861 4.61313 3.37897
thorax -6.38824 3.57725 5.85342
lowerneck -3.04405 -15.1804 -10.0497
upperneck -6.91058 -16.7245 41.5441
head 3.93801 -6.89201 14.672
rclavicle -3.61788e-014 -2.31584e-014
rhumerus 94.9426 7.36254 -78.0553
rradius 55.5561
rwrist -72.5144
rhand -2.49466 10.0662
rfingers 7.12502
rthumb 23.1989 -18.5566
lclavicle 6.48038e-014 2.90226e-014
lhumerus 51.5739 -44.7242 65.052
lradius 117.725
lwrist 70.0767
lhand -31.2868 28.882
lfingers 7.12502
lthumb -4.56012 58.813
rfemur -5.55158 -7.33454 24.8504
rtibia 19.3387
rfoot -26.4785 -39.3736
rtoes 9.45203
lfemur -25.2625 -21.2493 -8.88958
ltibia 20.3299
lfoot -7.78185 -2.47841
ltoes -28.0718
3594
root 0.0799209 17.5599 1.1031 -1430.19 138.018 -1438.44
lowerback -14.4791 1.3876 -2.45735
upperback -12.996 4.03944 3.37222
thorax -6.23918 3.1814 5.2374
lowerneck -4.10202 -14.8804 -10.5731
upperneck -6.0976 -16.6337 41.9211
head 4.47468 -6.65934 14.9274
rclavicle -3.61788e-014 -2.31584e-014
rhumerus 94.9426 7.36254 -78.0553
rradius 55.5561
rwrist -72.5144
rhand -2.49466 10.0662
rfingers 7.12502
rthumb 23.1989 -18.5566
lclavicle -1.24837e-013 -4.81059e-014
lhumerus 51.2668 -43.477 64.3515
lradius 117.672
lwrist 70.0031
lhand -31.3857 28.8291
lfingers 7.12502
lthumb -4.65558 58.758
rfemur -5.5444 -7.34765 24.7893
rtibia 19.4448
rfoot -26.5859 -39.3168
rtoes 9.61004
lfemur -25.1837 -21.2747 -8.96717
ltibia 20.3168
lfoot -7.75959 -2.46676
ltoes -27.5873
3595
root 0.0824811 17.5591 1.10498 -1430.29 138 -1438.46
lowerback -14.5043 1.40249 -2.51055
upperback -13.0439 4.08488 3.43537
thorax -6.29635 3.22127 5.33826
lowerneck -4.08133 -14.9263 -10.5066
upperneck -6.32602 -16.6043 41.9192
head 4.39057 -6.66784 14.912
rclavicle -3.61788e-014 -2.31584e-014
rhumerus 94.9426 7.36254 -78.0553
rradius 55.5561
rwrist -72.5144
rhand -2.49466 10.0662
rfingers 7.12502
rthumb 23.1989 -18.5566
lclavicle 7.55382e-014 2.46493e-014
lhumerus 51.4222 -43.6673 64.6393
lradius 117.719
lwrist 69.971
lhand -31.5012 29.0669
lfingers 7.12502
lthumb -4.76713 58.9932
rfemur -5.49517 -7.36379 24.7662
rtibia 19.5291
rfoot -26.5462 -39.244
rtoes 9.28585
lfemur -25.0938 -21.2635 -9.01938
ltibia 20.3546
lfoot -7.81102 -2.51198
ltoes -27.0113
3596
root 0.0846095 17.5583 1.10678 -1430.37 137.992 -1438.5
lowerback -14.5436 1.39976 -2.42396
upperback -13.1096 4.09445 3.45896
thorax -6.3469 3.23042 5.31491
lowerneck -4.09271 -14.9291 -10.3676
upperneck -6.4445 -16.5543 41.841
head 4.31586 -6.65614 14.852
rclavicle -3.61788e-014 -2.31584e-014
rhumerus 94.9426 7.36254 -78.0553
rradius 55.5561
rwrist -72.5144
rhand -2.49466 10.0662
rfingers 7.12502
rthumb 23.1989 -18.5566
lclavicle -1.1947e-013 -4.53229e-014
lhumerus 51.5328 -43.756 64.8032
lradius 117.804
lwrist 70.0129
lhand -31.505 29.1718
lfingers 7.12502
lthumb -4.77081 59.0981
rfemur -5.47798 -7.39389 24.7354
rtibia 19.5985
rfoot -26.4084 -39.2313
rtoes 9.09204
lfemur -25.0623 -21.178 -9.08369
ltibia 20.4197
lfoot -7.87745 -2.64379
ltoes -27.3056
3597
root 0.087397 17.557 1.10816 -1430.45 137.982 -1438.54
lowerback -14.6137 1.38534 -2.24873
upperback -13.1525 4.07093 3.44387
thorax -6.34014 3.20888 5.20041
lowerneck -4.10745 -14.9226 -10.1917
upperneck -6.53124 -16.4996 41.7767
head 4.24733 -6.63784 14.7937
rclavicle -3.61788e-014 -2.31584e-014
rhumerus 94.9426 7.36254 -78.0553
rradius 55.5561
rwrist -72.5144
rhand -2.49466 10.0662
rfingers 7.12502
rthumb 23.1989 -18.5566
lclavicle -9.14409e-015 -2.5842e-014
lhumerus 51.6154 -43.7586 64.7468
lradius 117.83
lwrist 70.0518
lhand -31.2817 28.4499
lfingers 7.12502
lthumb -4.55518 58.3809
rfemur -5.4606 -7.36616 24.7123
rtibia 19.685
rfoot -26.4648 -39.2729
rtoes 8.97631
lfemur -24.9972 -21.0446 -9.16577
ltibia 20.475
lfoot -7.88784 -2.77925
ltoes -28.0661
